<?xml version="1.0" encoding="utf-8" standalone="no"?>
<!DOCTYPE svg PUBLIC "-//W3C//DTD SVG 1.1//EN"
  "http://www.w3.org/Graphics/SVG/1.1/DTD/svg11.dtd">
<!-- Created with matplotlib (https://matplotlib.org/) -->
<svg height="340.15748pt" version="1.1" viewBox="0 0 453.543307 340.15748" width="453.543307pt" xmlns="http://www.w3.org/2000/svg" xmlns:xlink="http://www.w3.org/1999/xlink">
 <metadata>
  <rdf:RDF xmlns:cc="http://creativecommons.org/ns#" xmlns:dc="http://purl.org/dc/elements/1.1/" xmlns:rdf="http://www.w3.org/1999/02/22-rdf-syntax-ns#">
   <cc:Work>
    <dc:type rdf:resource="http://purl.org/dc/dcmitype/StillImage"/>
    <dc:date>2022-04-09T16:42:52.164187</dc:date>
    <dc:format>image/svg+xml</dc:format>
    <dc:creator>
     <cc:Agent>
      <dc:title>Matplotlib v3.3.2, https://matplotlib.org/</dc:title>
     </cc:Agent>
    </dc:creator>
   </cc:Work>
  </rdf:RDF>
 </metadata>
 <defs>
  <style type="text/css">*{stroke-linecap:butt;stroke-linejoin:round;}</style>
 </defs>
 <g id="figure_1">
  <g id="patch_1">
   <path d="M 0 340.15748 
L 453.543307 340.15748 
L 453.543307 0 
L 0 0 
z
" style="fill:#ffffff;"/>
  </g>
  <g id="axes_1">
   <g id="patch_2">
    <path d="M 45.71 150.34874 
L 234.916654 150.34874 
L 234.916654 25.96 
L 45.71 25.96 
z
" style="fill:#ffffff;"/>
   </g>
   <g id="PathCollection_1">
    <defs>
     <path d="M 0 1.118034 
C 0.296506 1.118034 0.580908 1.000231 0.790569 0.790569 
C 1.000231 0.580908 1.118034 0.296506 1.118034 0 
C 1.118034 -0.296506 1.000231 -0.580908 0.790569 -0.790569 
C 0.580908 -1.000231 0.296506 -1.118034 0 -1.118034 
C -0.296506 -1.118034 -0.580908 -1.000231 -0.790569 -0.790569 
C -1.000231 -0.580908 -1.118034 -0.296506 -1.118034 0 
C -1.118034 0.296506 -1.000231 0.580908 -0.790569 0.790569 
C -0.580908 1.000231 -0.296506 1.118034 0 1.118034 
z
" id="mb4f1aba303" style="stroke:#000000;"/>
    </defs>
    <g clip-path="url(#pd4929a830f)">
     <use style="stroke:#000000;" x="211.488356" xlink:href="#mb4f1aba303" y="79.915905"/>
     <use style="stroke:#000000;" x="219.149432" xlink:href="#mb4f1aba303" y="70.768386"/>
     <use style="stroke:#000000;" x="204.075374" xlink:href="#mb4f1aba303" y="66.817872"/>
     <use style="stroke:#000000;" x="180.383512" xlink:href="#mb4f1aba303" y="74.105716"/>
     <use style="stroke:#000000;" x="177.783897" xlink:href="#mb4f1aba303" y="59.912265"/>
     <use style="stroke:#000000;" x="185.771653" xlink:href="#mb4f1aba303" y="56.281469"/>
     <use style="stroke:#000000;" x="176.414471" xlink:href="#mb4f1aba303" y="65.746403"/>
     <use style="stroke:#000000;" x="174.08227" xlink:href="#mb4f1aba303" y="36.325728"/>
    </g>
   </g>
   <g id="PathCollection_2">
    <g clip-path="url(#pd4929a830f)"/>
   </g>
   <g id="matplotlib.axis_1">
    <g id="xtick_1">
     <g id="line2d_1">
      <defs>
       <path d="M 0 0 
L 0 3.5 
" id="mc48c253b49" style="stroke:#000000;stroke-width:0.8;"/>
      </defs>
      <g>
       <use style="stroke:#000000;stroke-width:0.8;" x="61.477221" xlink:href="#mc48c253b49" y="150.34874"/>
      </g>
     </g>
    </g>
    <g id="xtick_2">
     <g id="line2d_2">
      <g>
       <use style="stroke:#000000;stroke-width:0.8;" x="100.895274" xlink:href="#mc48c253b49" y="150.34874"/>
      </g>
     </g>
    </g>
    <g id="xtick_3">
     <g id="line2d_3">
      <g>
       <use style="stroke:#000000;stroke-width:0.8;" x="140.313327" xlink:href="#mc48c253b49" y="150.34874"/>
      </g>
     </g>
    </g>
    <g id="xtick_4">
     <g id="line2d_4">
      <g>
       <use style="stroke:#000000;stroke-width:0.8;" x="179.73138" xlink:href="#mc48c253b49" y="150.34874"/>
      </g>
     </g>
    </g>
    <g id="xtick_5">
     <g id="line2d_5">
      <g>
       <use style="stroke:#000000;stroke-width:0.8;" x="219.149432" xlink:href="#mc48c253b49" y="150.34874"/>
      </g>
     </g>
    </g>
   </g>
   <g id="matplotlib.axis_2">
    <g id="ytick_1">
     <g id="line2d_6">
      <defs>
       <path d="M 0 0 
L -3.5 0 
" id="m83020937a4" style="stroke:#000000;stroke-width:0.8;"/>
      </defs>
      <g>
       <use style="stroke:#000000;stroke-width:0.8;" x="45.71" xlink:href="#m83020937a4" y="139.983012"/>
      </g>
     </g>
     <g id="text_1">
      <!-- 0.00 -->
      <g transform="translate(23.14125 142.846137)scale(0.08 -0.08)">
       <defs>
        <path d="M 4.15625 35.296875 
Q 4.15625 48 6.765625 55.734375 
Q 9.375 63.484375 14.515625 67.671875 
Q 19.671875 71.875 27.484375 71.875 
Q 33.25 71.875 37.59375 69.546875 
Q 41.9375 67.234375 44.765625 62.859375 
Q 47.609375 58.5 49.21875 52.21875 
Q 50.828125 45.953125 50.828125 35.296875 
Q 50.828125 22.703125 48.234375 14.96875 
Q 45.65625 7.234375 40.5 3 
Q 35.359375 -1.21875 27.484375 -1.21875 
Q 17.140625 -1.21875 11.234375 6.203125 
Q 4.15625 15.140625 4.15625 35.296875 
z
M 13.1875 35.296875 
Q 13.1875 17.671875 17.3125 11.828125 
Q 21.4375 6 27.484375 6 
Q 33.546875 6 37.671875 11.859375 
Q 41.796875 17.71875 41.796875 35.296875 
Q 41.796875 52.984375 37.671875 58.78125 
Q 33.546875 64.59375 27.390625 64.59375 
Q 21.34375 64.59375 17.71875 59.46875 
Q 13.1875 52.9375 13.1875 35.296875 
z
" id="ArialMT-48"/>
        <path d="M 9.078125 0 
L 9.078125 10.015625 
L 19.09375 10.015625 
L 19.09375 0 
z
" id="ArialMT-46"/>
       </defs>
       <use xlink:href="#ArialMT-48"/>
       <use x="55.615234" xlink:href="#ArialMT-46"/>
       <use x="83.398438" xlink:href="#ArialMT-48"/>
       <use x="139.013672" xlink:href="#ArialMT-48"/>
      </g>
     </g>
    </g>
    <g id="ytick_2">
     <g id="line2d_7">
      <g>
       <use style="stroke:#000000;stroke-width:0.8;" x="45.71" xlink:href="#m83020937a4" y="114.068691"/>
      </g>
     </g>
     <g id="text_2">
      <!-- 0.25 -->
      <g transform="translate(23.14125 116.931816)scale(0.08 -0.08)">
       <defs>
        <path d="M 50.34375 8.453125 
L 50.34375 0 
L 3.03125 0 
Q 2.9375 3.171875 4.046875 6.109375 
Q 5.859375 10.9375 9.828125 15.625 
Q 13.8125 20.3125 21.34375 26.46875 
Q 33.015625 36.03125 37.109375 41.625 
Q 41.21875 47.21875 41.21875 52.203125 
Q 41.21875 57.421875 37.46875 61 
Q 33.734375 64.59375 27.734375 64.59375 
Q 21.390625 64.59375 17.578125 60.78125 
Q 13.765625 56.984375 13.71875 50.25 
L 4.6875 51.171875 
Q 5.609375 61.28125 11.65625 66.578125 
Q 17.71875 71.875 27.9375 71.875 
Q 38.234375 71.875 44.234375 66.15625 
Q 50.25 60.453125 50.25 52 
Q 50.25 47.703125 48.484375 43.546875 
Q 46.734375 39.40625 42.65625 34.8125 
Q 38.578125 30.21875 29.109375 22.21875 
Q 21.1875 15.578125 18.9375 13.203125 
Q 16.703125 10.84375 15.234375 8.453125 
z
" id="ArialMT-50"/>
        <path d="M 4.15625 18.75 
L 13.375 19.53125 
Q 14.40625 12.796875 18.140625 9.390625 
Q 21.875 6 27.15625 6 
Q 33.5 6 37.890625 10.78125 
Q 42.28125 15.578125 42.28125 23.484375 
Q 42.28125 31 38.0625 35.34375 
Q 33.84375 39.703125 27 39.703125 
Q 22.75 39.703125 19.328125 37.765625 
Q 15.921875 35.84375 13.96875 32.765625 
L 5.71875 33.84375 
L 12.640625 70.609375 
L 48.25 70.609375 
L 48.25 62.203125 
L 19.671875 62.203125 
L 15.828125 42.96875 
Q 22.265625 47.46875 29.34375 47.46875 
Q 38.71875 47.46875 45.15625 40.96875 
Q 51.609375 34.46875 51.609375 24.265625 
Q 51.609375 14.546875 45.953125 7.46875 
Q 39.0625 -1.21875 27.15625 -1.21875 
Q 17.390625 -1.21875 11.203125 4.25 
Q 5.03125 9.71875 4.15625 18.75 
z
" id="ArialMT-53"/>
       </defs>
       <use xlink:href="#ArialMT-48"/>
       <use x="55.615234" xlink:href="#ArialMT-46"/>
       <use x="83.398438" xlink:href="#ArialMT-50"/>
       <use x="139.013672" xlink:href="#ArialMT-53"/>
      </g>
     </g>
    </g>
    <g id="ytick_3">
     <g id="line2d_8">
      <g>
       <use style="stroke:#000000;stroke-width:0.8;" x="45.71" xlink:href="#m83020937a4" y="88.15437"/>
      </g>
     </g>
     <g id="text_3">
      <!-- 0.50 -->
      <g transform="translate(23.14125 91.017495)scale(0.08 -0.08)">
       <use xlink:href="#ArialMT-48"/>
       <use x="55.615234" xlink:href="#ArialMT-46"/>
       <use x="83.398438" xlink:href="#ArialMT-53"/>
       <use x="139.013672" xlink:href="#ArialMT-48"/>
      </g>
     </g>
    </g>
    <g id="ytick_4">
     <g id="line2d_9">
      <g>
       <use style="stroke:#000000;stroke-width:0.8;" x="45.71" xlink:href="#m83020937a4" y="62.240049"/>
      </g>
     </g>
     <g id="text_4">
      <!-- 0.75 -->
      <g transform="translate(23.14125 65.103174)scale(0.08 -0.08)">
       <defs>
        <path d="M 4.734375 62.203125 
L 4.734375 70.65625 
L 51.078125 70.65625 
L 51.078125 63.8125 
Q 44.234375 56.546875 37.515625 44.484375 
Q 30.8125 32.421875 27.15625 19.671875 
Q 24.515625 10.6875 23.78125 0 
L 14.75 0 
Q 14.890625 8.453125 18.0625 20.40625 
Q 21.234375 32.375 27.171875 43.484375 
Q 33.109375 54.59375 39.796875 62.203125 
z
" id="ArialMT-55"/>
       </defs>
       <use xlink:href="#ArialMT-48"/>
       <use x="55.615234" xlink:href="#ArialMT-46"/>
       <use x="83.398438" xlink:href="#ArialMT-55"/>
       <use x="139.013672" xlink:href="#ArialMT-53"/>
      </g>
     </g>
    </g>
    <g id="ytick_5">
     <g id="line2d_10">
      <g>
       <use style="stroke:#000000;stroke-width:0.8;" x="45.71" xlink:href="#m83020937a4" y="36.325728"/>
      </g>
     </g>
     <g id="text_5">
      <!-- 1.00 -->
      <g transform="translate(23.14125 39.188853)scale(0.08 -0.08)">
       <defs>
        <path d="M 37.25 0 
L 28.46875 0 
L 28.46875 56 
Q 25.296875 52.984375 20.140625 49.953125 
Q 14.984375 46.921875 10.890625 45.40625 
L 10.890625 53.90625 
Q 18.265625 57.375 23.78125 62.296875 
Q 29.296875 67.234375 31.59375 71.875 
L 37.25 71.875 
z
" id="ArialMT-49"/>
       </defs>
       <use xlink:href="#ArialMT-49"/>
       <use x="55.615234" xlink:href="#ArialMT-46"/>
       <use x="83.398438" xlink:href="#ArialMT-48"/>
       <use x="139.013672" xlink:href="#ArialMT-48"/>
      </g>
     </g>
    </g>
    <g id="text_6">
     <!-- Preclusive GA -->
     <g transform="translate(17.55125 113.49562)rotate(-90)scale(0.08 -0.08)">
      <defs>
       <path d="M 4.296875 0 
L 19.28125 71.578125 
L 49.171875 71.578125 
Q 56.9375 71.578125 60.8125 69.796875 
Q 64.703125 68.015625 67.234375 63.6875 
Q 69.78125 59.375 69.78125 54 
Q 69.78125 49.5625 67.96875 44.96875 
Q 66.15625 40.375 63.390625 37.390625 
Q 60.640625 34.421875 57.8125 32.90625 
Q 54.984375 31.390625 51.765625 30.671875 
Q 44.875 29.046875 37.84375 29.046875 
L 19.921875 29.046875 
L 13.875 0 
z
M 21.625 37.15625 
L 37.40625 37.15625 
Q 46.578125 37.15625 50.875 39.125 
Q 55.171875 41.109375 57.765625 45.15625 
Q 60.359375 49.21875 60.359375 53.765625 
Q 60.359375 57.28125 58.984375 59.5 
Q 57.625 61.71875 55.125 62.765625 
Q 52.640625 63.8125 45.5625 63.8125 
L 27.203125 63.8125 
z
" id="Arial-ItalicMT-80"/>
       <path d="M 3.328125 0 
L 14.15625 51.859375 
L 21.96875 51.859375 
L 19.78125 41.265625 
Q 23.78125 47.265625 27.609375 50.140625 
Q 31.453125 53.03125 35.453125 53.03125 
Q 38.09375 53.03125 41.9375 51.125 
L 38.328125 42.921875 
Q 36.03125 44.578125 33.296875 44.578125 
Q 28.65625 44.578125 23.765625 39.40625 
Q 18.890625 34.234375 16.109375 20.796875 
L 11.71875 0 
z
" id="Arial-ItalicMT-114"/>
       <path d="M 41.40625 17.625 
L 50 16.75 
Q 48.140625 10.359375 41.46875 4.59375 
Q 34.8125 -1.171875 25.59375 -1.171875 
Q 19.828125 -1.171875 15.015625 1.484375 
Q 10.203125 4.15625 7.6875 9.234375 
Q 5.171875 14.3125 5.171875 20.796875 
Q 5.171875 29.296875 9.09375 37.28125 
Q 13.03125 45.265625 19.28125 49.140625 
Q 25.53125 53.03125 32.8125 53.03125 
Q 42.09375 53.03125 47.625 47.265625 
Q 53.171875 41.5 53.171875 31.546875 
Q 53.171875 27.734375 52.484375 23.734375 
L 14.3125 23.734375 
Q 14.109375 22.21875 14.109375 21 
Q 14.109375 13.71875 17.453125 9.890625 
Q 20.796875 6.0625 25.640625 6.0625 
Q 30.171875 6.0625 34.5625 9.03125 
Q 38.96875 12.015625 41.40625 17.625 
z
M 15.71875 30.46875 
L 44.828125 30.46875 
Q 44.875 31.84375 44.875 32.421875 
Q 44.875 39.0625 41.546875 42.59375 
Q 38.234375 46.140625 33.015625 46.140625 
Q 27.34375 46.140625 22.671875 42.234375 
Q 18.015625 38.328125 15.71875 30.46875 
z
" id="Arial-ItalicMT-101"/>
       <path d="M 39.109375 18.890625 
L 47.953125 17.96875 
Q 44.625 8.25 38.5 3.53125 
Q 32.375 -1.171875 24.5625 -1.171875 
Q 16.109375 -1.171875 10.859375 4.296875 
Q 5.609375 9.765625 5.609375 19.578125 
Q 5.609375 28.078125 8.984375 36.28125 
Q 12.359375 44.484375 18.625 48.75 
Q 24.90625 53.03125 32.953125 53.03125 
Q 41.3125 53.03125 46.1875 48.3125 
Q 51.078125 43.609375 51.078125 35.84375 
L 42.390625 35.25 
Q 42.328125 40.1875 39.515625 42.96875 
Q 36.71875 45.75 32.125 45.75 
Q 26.8125 45.75 22.90625 42.375 
Q 19 39.015625 16.765625 32.15625 
Q 14.546875 25.296875 14.546875 18.953125 
Q 14.546875 12.3125 17.46875 8.984375 
Q 20.40625 5.671875 24.703125 5.671875 
Q 29 5.671875 32.921875 8.9375 
Q 36.859375 12.203125 39.109375 18.890625 
z
" id="Arial-ItalicMT-99"/>
       <path d="M 2.640625 0 
L 17.578125 71.578125 
L 26.421875 71.578125 
L 11.46875 0 
z
" id="Arial-ItalicMT-108"/>
       <path d="M 38.71875 9.375 
Q 29.390625 -1.171875 19.625 -1.171875 
Q 13.625 -1.171875 9.9375 2.265625 
Q 6.25 5.71875 6.25 10.6875 
Q 6.25 13.96875 7.90625 21.921875 
L 14.15625 51.859375 
L 23 51.859375 
L 16.0625 18.703125 
Q 15.1875 14.546875 15.1875 12.25 
Q 15.1875 9.328125 16.96875 7.6875 
Q 18.75 6.0625 22.21875 6.0625 
Q 25.921875 6.0625 29.46875 7.859375 
Q 33.015625 9.671875 35.578125 12.75 
Q 38.140625 15.828125 39.75 20.015625 
Q 40.828125 22.703125 42.234375 29.4375 
L 46.921875 51.859375 
L 55.765625 51.859375 
L 44.921875 0 
L 36.765625 0 
z
" id="Arial-ItalicMT-117"/>
       <path d="M 4.15625 17.71875 
L 12.984375 18.265625 
Q 12.984375 14.453125 14.15625 11.765625 
Q 15.328125 9.078125 18.46875 7.375 
Q 21.625 5.671875 25.828125 5.671875 
Q 31.6875 5.671875 34.609375 8.015625 
Q 37.546875 10.359375 37.546875 13.53125 
Q 37.546875 15.828125 35.796875 17.875 
Q 33.984375 19.921875 26.96875 22.921875 
Q 19.96875 25.921875 18.015625 27.15625 
Q 14.75 29.15625 13.078125 31.859375 
Q 11.421875 34.578125 11.421875 38.09375 
Q 11.421875 44.234375 16.296875 48.625 
Q 21.1875 53.03125 29.984375 53.03125 
Q 39.75 53.03125 44.84375 48.515625 
Q 49.953125 44 50.140625 36.625 
L 41.5 36.03125 
Q 41.3125 40.71875 38.1875 43.453125 
Q 35.0625 46.1875 29.34375 46.1875 
Q 24.75 46.1875 22.203125 44.09375 
Q 19.671875 42 19.671875 39.546875 
Q 19.671875 37.109375 21.875 35.25 
Q 23.34375 33.984375 29.4375 31.34375 
Q 39.59375 26.953125 42.234375 24.421875 
Q 46.4375 20.359375 46.4375 14.546875 
Q 46.4375 10.6875 44.0625 6.96875 
Q 41.703125 3.265625 36.84375 1.046875 
Q 31.984375 -1.171875 25.390625 -1.171875 
Q 16.40625 -1.171875 10.109375 3.265625 
Q 3.8125 7.71875 4.15625 17.71875 
z
" id="Arial-ItalicMT-115"/>
       <path d="M 15.875 61.578125 
L 17.96875 71.578125 
L 26.765625 71.578125 
L 24.65625 61.578125 
z
M 2.984375 0 
L 13.8125 51.859375 
L 22.65625 51.859375 
L 11.8125 0 
z
" id="Arial-ItalicMT-105"/>
       <path d="M 16.40625 0 
L 7.90625 51.859375 
L 16.5 51.859375 
L 20.953125 23.296875 
Q 21.6875 18.609375 22.75 8.015625 
Q 25.296875 13.53125 29.25 20.65625 
L 46.578125 51.859375 
L 55.90625 51.859375 
L 26.21875 0 
z
" id="Arial-ItalicMT-118"/>
       <path id="Arial-ItalicMT-32"/>
       <path d="M 40.96875 28.21875 
L 42.671875 36.328125 
L 74.03125 36.328125 
L 67.921875 7.171875 
Q 62.015625 3.46875 54.4375 1.125 
Q 46.875 -1.21875 39.546875 -1.21875 
Q 23.921875 -1.21875 16.21875 8.203125 
Q 9.71875 16.15625 9.71875 28.65625 
Q 9.71875 41.546875 15.40625 52.125 
Q 21.09375 62.703125 29.75 67.75 
Q 38.421875 72.796875 49.03125 72.796875 
Q 56.640625 72.796875 62.6875 70.03125 
Q 68.75 67.28125 71.96875 62.671875 
Q 75.203125 58.0625 76.609375 50.640625 
L 67.234375 49.609375 
Q 65.71875 56.984375 60.953125 60.90625 
Q 56.203125 64.84375 48.734375 64.84375 
Q 40.96875 64.84375 34.21875 60.609375 
Q 27.484375 56.390625 23.453125 47.875 
Q 19.4375 39.359375 19.4375 28.515625 
Q 19.4375 17.71875 24.75 12.203125 
Q 30.078125 6.6875 39.453125 6.6875 
Q 48.78125 6.6875 59.515625 12.84375 
L 62.75 28.21875 
z
" id="Arial-ItalicMT-71"/>
       <path d="M -2 0 
L 38.578125 71.578125 
L 49.859375 71.578125 
L 61.671875 0 
L 52.390625 0 
L 48.921875 20.609375 
L 19.96875 20.609375 
L 8.5 0 
z
M 24.078125 27.984375 
L 47.75 27.984375 
L 44.96875 45.953125 
Q 43.359375 56.640625 42.96875 63.765625 
Q 40.53125 57.625 35.84375 49.171875 
z
" id="Arial-ItalicMT-65"/>
      </defs>
      <use xlink:href="#Arial-ItalicMT-80"/>
      <use x="66.699219" xlink:href="#Arial-ItalicMT-114"/>
      <use x="100" xlink:href="#Arial-ItalicMT-101"/>
      <use x="155.615234" xlink:href="#Arial-ItalicMT-99"/>
      <use x="205.615234" xlink:href="#Arial-ItalicMT-108"/>
      <use x="227.832031" xlink:href="#Arial-ItalicMT-117"/>
      <use x="283.447266" xlink:href="#Arial-ItalicMT-115"/>
      <use x="333.447266" xlink:href="#Arial-ItalicMT-105"/>
      <use x="355.664062" xlink:href="#Arial-ItalicMT-118"/>
      <use x="405.664062" xlink:href="#Arial-ItalicMT-101"/>
      <use x="461.279297" xlink:href="#Arial-ItalicMT-32"/>
      <use x="489.0625" xlink:href="#Arial-ItalicMT-71"/>
      <use x="566.845703" xlink:href="#Arial-ItalicMT-65"/>
     </g>
    </g>
   </g>
   <g id="LineCollection_1">
    <path clip-path="url(#pd4929a830f)" d="M -1 93.304086 
L 454.543307 93.304086 
" style="fill:none;stroke:#808080;stroke-dasharray:1.85,0.8;stroke-dashoffset:0;stroke-width:0.5;"/>
   </g>
   <g id="LineCollection_2">
    <path clip-path="url(#pd4929a830f)" d="M 126.227405 243.640295 
L 126.227405 -1 
" style="fill:none;stroke:#808080;stroke-dasharray:1.85,0.8;stroke-dashoffset:0;stroke-width:0.5;"/>
   </g>
   <g id="patch_3">
    <path d="M 45.71 150.34874 
L 45.71 25.96 
" style="fill:none;stroke:#000000;stroke-linecap:square;stroke-linejoin:miter;stroke-width:0.8;"/>
   </g>
   <g id="patch_4">
    <path d="M 234.916654 150.34874 
L 234.916654 25.96 
" style="fill:none;stroke:#000000;stroke-linecap:square;stroke-linejoin:miter;stroke-width:0.8;"/>
   </g>
   <g id="patch_5">
    <path d="M 45.71 150.34874 
L 234.916654 150.34874 
" style="fill:none;stroke:#000000;stroke-linecap:square;stroke-linejoin:miter;stroke-width:0.8;"/>
   </g>
   <g id="patch_6">
    <path d="M 45.71 25.96 
L 234.916654 25.96 
" style="fill:none;stroke:#000000;stroke-linecap:square;stroke-linejoin:miter;stroke-width:0.8;"/>
   </g>
   <g id="text_7">
    <!-- '00 -->
    <g transform="translate(211.488356 79.915905)scale(0.08 -0.08)">
     <defs>
      <path d="M 6.640625 46.234375 
L 4.390625 59.625 
L 4.390625 71.578125 
L 14.40625 71.578125 
L 14.40625 59.625 
L 12.0625 46.234375 
z
" id="ArialMT-39"/>
     </defs>
     <use xlink:href="#ArialMT-39"/>
     <use x="19.091797" xlink:href="#ArialMT-48"/>
     <use x="74.707031" xlink:href="#ArialMT-48"/>
    </g>
   </g>
   <g id="text_8">
    <!-- '01 -->
    <g transform="translate(219.149432 70.768386)scale(0.08 -0.08)">
     <use xlink:href="#ArialMT-39"/>
     <use x="19.091797" xlink:href="#ArialMT-48"/>
     <use x="74.707031" xlink:href="#ArialMT-49"/>
    </g>
   </g>
   <g id="text_9">
    <!-- '02 -->
    <g transform="translate(204.075374 66.817872)scale(0.08 -0.08)">
     <use xlink:href="#ArialMT-39"/>
     <use x="19.091797" xlink:href="#ArialMT-48"/>
     <use x="74.707031" xlink:href="#ArialMT-50"/>
    </g>
   </g>
   <g id="text_10">
    <!-- '03 -->
    <g transform="translate(180.383512 74.105716)scale(0.08 -0.08)">
     <defs>
      <path d="M 4.203125 18.890625 
L 12.984375 20.0625 
Q 14.5 12.59375 18.140625 9.296875 
Q 21.78125 6 27 6 
Q 33.203125 6 37.46875 10.296875 
Q 41.75 14.59375 41.75 20.953125 
Q 41.75 27 37.796875 30.921875 
Q 33.84375 34.859375 27.734375 34.859375 
Q 25.25 34.859375 21.53125 33.890625 
L 22.515625 41.609375 
Q 23.390625 41.5 23.921875 41.5 
Q 29.546875 41.5 34.03125 44.421875 
Q 38.53125 47.359375 38.53125 53.46875 
Q 38.53125 58.296875 35.25 61.46875 
Q 31.984375 64.65625 26.8125 64.65625 
Q 21.6875 64.65625 18.265625 61.421875 
Q 14.84375 58.203125 13.875 51.765625 
L 5.078125 53.328125 
Q 6.6875 62.15625 12.390625 67.015625 
Q 18.109375 71.875 26.609375 71.875 
Q 32.46875 71.875 37.390625 69.359375 
Q 42.328125 66.84375 44.9375 62.5 
Q 47.5625 58.15625 47.5625 53.265625 
Q 47.5625 48.640625 45.0625 44.828125 
Q 42.578125 41.015625 37.703125 38.765625 
Q 44.046875 37.3125 47.5625 32.6875 
Q 51.078125 28.078125 51.078125 21.140625 
Q 51.078125 11.765625 44.234375 5.25 
Q 37.40625 -1.265625 26.953125 -1.265625 
Q 17.53125 -1.265625 11.296875 4.34375 
Q 5.078125 9.96875 4.203125 18.890625 
z
" id="ArialMT-51"/>
     </defs>
     <use xlink:href="#ArialMT-39"/>
     <use x="19.091797" xlink:href="#ArialMT-48"/>
     <use x="74.707031" xlink:href="#ArialMT-51"/>
    </g>
   </g>
   <g id="text_11">
    <!-- '04 -->
    <g transform="translate(177.783897 59.912265)scale(0.08 -0.08)">
     <defs>
      <path d="M 32.328125 0 
L 32.328125 17.140625 
L 1.265625 17.140625 
L 1.265625 25.203125 
L 33.9375 71.578125 
L 41.109375 71.578125 
L 41.109375 25.203125 
L 50.78125 25.203125 
L 50.78125 17.140625 
L 41.109375 17.140625 
L 41.109375 0 
z
M 32.328125 25.203125 
L 32.328125 57.46875 
L 9.90625 25.203125 
z
" id="ArialMT-52"/>
     </defs>
     <use xlink:href="#ArialMT-39"/>
     <use x="19.091797" xlink:href="#ArialMT-48"/>
     <use x="74.707031" xlink:href="#ArialMT-52"/>
    </g>
   </g>
   <g id="text_12">
    <!-- '05 -->
    <g transform="translate(185.771653 56.281469)scale(0.08 -0.08)">
     <use xlink:href="#ArialMT-39"/>
     <use x="19.091797" xlink:href="#ArialMT-48"/>
     <use x="74.707031" xlink:href="#ArialMT-53"/>
    </g>
   </g>
   <g id="text_13">
    <!-- '06 -->
    <g transform="translate(176.414471 65.746403)scale(0.08 -0.08)">
     <defs>
      <path d="M 49.75 54.046875 
L 41.015625 53.375 
Q 39.84375 58.546875 37.703125 60.890625 
Q 34.125 64.65625 28.90625 64.65625 
Q 24.703125 64.65625 21.53125 62.3125 
Q 17.390625 59.28125 14.984375 53.46875 
Q 12.59375 47.65625 12.5 36.921875 
Q 15.671875 41.75 20.265625 44.09375 
Q 24.859375 46.4375 29.890625 46.4375 
Q 38.671875 46.4375 44.84375 39.96875 
Q 51.03125 33.5 51.03125 23.25 
Q 51.03125 16.5 48.125 10.71875 
Q 45.21875 4.9375 40.140625 1.859375 
Q 35.0625 -1.21875 28.609375 -1.21875 
Q 17.625 -1.21875 10.6875 6.859375 
Q 3.765625 14.9375 3.765625 33.5 
Q 3.765625 54.25 11.421875 63.671875 
Q 18.109375 71.875 29.4375 71.875 
Q 37.890625 71.875 43.28125 67.140625 
Q 48.6875 62.40625 49.75 54.046875 
z
M 13.875 23.1875 
Q 13.875 18.65625 15.796875 14.5 
Q 17.71875 10.359375 21.1875 8.171875 
Q 24.65625 6 28.46875 6 
Q 34.03125 6 38.03125 10.484375 
Q 42.046875 14.984375 42.046875 22.703125 
Q 42.046875 30.125 38.078125 34.390625 
Q 34.125 38.671875 28.125 38.671875 
Q 22.171875 38.671875 18.015625 34.390625 
Q 13.875 30.125 13.875 23.1875 
z
" id="ArialMT-54"/>
     </defs>
     <use xlink:href="#ArialMT-39"/>
     <use x="19.091797" xlink:href="#ArialMT-48"/>
     <use x="74.707031" xlink:href="#ArialMT-54"/>
    </g>
   </g>
   <g id="text_14">
    <!-- '07 -->
    <g transform="translate(174.08227 36.325728)scale(0.08 -0.08)">
     <use xlink:href="#ArialMT-39"/>
     <use x="19.091797" xlink:href="#ArialMT-48"/>
     <use x="74.707031" xlink:href="#ArialMT-55"/>
    </g>
   </g>
   <g id="text_15">
    <!-- Micron Technology -->
    <g transform="translate(100.382577 19.96)scale(0.096 -0.096)">
     <defs>
      <path d="M 7.421875 0 
L 7.421875 71.578125 
L 21.6875 71.578125 
L 38.625 20.90625 
Q 40.96875 13.8125 42.046875 10.296875 
Q 43.265625 14.203125 45.84375 21.78125 
L 62.984375 71.578125 
L 75.734375 71.578125 
L 75.734375 0 
L 66.609375 0 
L 66.609375 59.90625 
L 45.796875 0 
L 37.25 0 
L 16.546875 60.9375 
L 16.546875 0 
z
" id="ArialMT-77"/>
      <path d="M 6.640625 61.46875 
L 6.640625 71.578125 
L 15.4375 71.578125 
L 15.4375 61.46875 
z
M 6.640625 0 
L 6.640625 51.859375 
L 15.4375 51.859375 
L 15.4375 0 
z
" id="ArialMT-105"/>
      <path d="M 40.4375 19 
L 49.078125 17.875 
Q 47.65625 8.9375 41.8125 3.875 
Q 35.984375 -1.171875 27.484375 -1.171875 
Q 16.84375 -1.171875 10.375 5.78125 
Q 3.90625 12.75 3.90625 25.734375 
Q 3.90625 34.125 6.6875 40.421875 
Q 9.46875 46.734375 15.15625 49.875 
Q 20.84375 53.03125 27.546875 53.03125 
Q 35.984375 53.03125 41.359375 48.75 
Q 46.734375 44.484375 48.25 36.625 
L 39.703125 35.296875 
Q 38.484375 40.53125 35.375 43.15625 
Q 32.28125 45.796875 27.875 45.796875 
Q 21.234375 45.796875 17.078125 41.03125 
Q 12.9375 36.28125 12.9375 25.984375 
Q 12.9375 15.53125 16.9375 10.796875 
Q 20.953125 6.0625 27.390625 6.0625 
Q 32.5625 6.0625 36.03125 9.234375 
Q 39.5 12.40625 40.4375 19 
z
" id="ArialMT-99"/>
      <path d="M 6.5 0 
L 6.5 51.859375 
L 14.40625 51.859375 
L 14.40625 44 
Q 17.4375 49.515625 20 51.265625 
Q 22.5625 53.03125 25.640625 53.03125 
Q 30.078125 53.03125 34.671875 50.203125 
L 31.640625 42.046875 
Q 28.421875 43.953125 25.203125 43.953125 
Q 22.3125 43.953125 20.015625 42.21875 
Q 17.71875 40.484375 16.75 37.40625 
Q 15.28125 32.71875 15.28125 27.15625 
L 15.28125 0 
z
" id="ArialMT-114"/>
      <path d="M 3.328125 25.921875 
Q 3.328125 40.328125 11.328125 47.265625 
Q 18.015625 53.03125 27.640625 53.03125 
Q 38.328125 53.03125 45.109375 46.015625 
Q 51.90625 39.015625 51.90625 26.65625 
Q 51.90625 16.65625 48.90625 10.90625 
Q 45.90625 5.171875 40.15625 2 
Q 34.421875 -1.171875 27.640625 -1.171875 
Q 16.75 -1.171875 10.03125 5.8125 
Q 3.328125 12.796875 3.328125 25.921875 
z
M 12.359375 25.921875 
Q 12.359375 15.96875 16.703125 11.015625 
Q 21.046875 6.0625 27.640625 6.0625 
Q 34.1875 6.0625 38.53125 11.03125 
Q 42.875 16.015625 42.875 26.21875 
Q 42.875 35.84375 38.5 40.796875 
Q 34.125 45.75 27.640625 45.75 
Q 21.046875 45.75 16.703125 40.8125 
Q 12.359375 35.890625 12.359375 25.921875 
z
" id="ArialMT-111"/>
      <path d="M 6.59375 0 
L 6.59375 51.859375 
L 14.5 51.859375 
L 14.5 44.484375 
Q 20.21875 53.03125 31 53.03125 
Q 35.6875 53.03125 39.625 51.34375 
Q 43.5625 49.65625 45.515625 46.921875 
Q 47.46875 44.1875 48.25 40.4375 
Q 48.734375 37.984375 48.734375 31.890625 
L 48.734375 0 
L 39.9375 0 
L 39.9375 31.546875 
Q 39.9375 36.921875 38.90625 39.578125 
Q 37.890625 42.234375 35.28125 43.8125 
Q 32.671875 45.40625 29.15625 45.40625 
Q 23.53125 45.40625 19.453125 41.84375 
Q 15.375 38.28125 15.375 28.328125 
L 15.375 0 
z
" id="ArialMT-110"/>
      <path id="ArialMT-32"/>
      <path d="M 25.921875 0 
L 25.921875 63.140625 
L 2.34375 63.140625 
L 2.34375 71.578125 
L 59.078125 71.578125 
L 59.078125 63.140625 
L 35.40625 63.140625 
L 35.40625 0 
z
" id="ArialMT-84"/>
      <path d="M 42.09375 16.703125 
L 51.171875 15.578125 
Q 49.03125 7.625 43.21875 3.21875 
Q 37.40625 -1.171875 28.375 -1.171875 
Q 17 -1.171875 10.328125 5.828125 
Q 3.65625 12.84375 3.65625 25.484375 
Q 3.65625 38.578125 10.390625 45.796875 
Q 17.140625 53.03125 27.875 53.03125 
Q 38.28125 53.03125 44.875 45.953125 
Q 51.46875 38.875 51.46875 26.03125 
Q 51.46875 25.25 51.421875 23.6875 
L 12.75 23.6875 
Q 13.234375 15.140625 17.578125 10.59375 
Q 21.921875 6.0625 28.421875 6.0625 
Q 33.25 6.0625 36.671875 8.59375 
Q 40.09375 11.140625 42.09375 16.703125 
z
M 13.234375 30.90625 
L 42.1875 30.90625 
Q 41.609375 37.453125 38.875 40.71875 
Q 34.671875 45.796875 27.984375 45.796875 
Q 21.921875 45.796875 17.796875 41.75 
Q 13.671875 37.703125 13.234375 30.90625 
z
" id="ArialMT-101"/>
      <path d="M 6.59375 0 
L 6.59375 71.578125 
L 15.375 71.578125 
L 15.375 45.90625 
Q 21.53125 53.03125 30.90625 53.03125 
Q 36.671875 53.03125 40.921875 50.75 
Q 45.171875 48.484375 47 44.484375 
Q 48.828125 40.484375 48.828125 32.859375 
L 48.828125 0 
L 40.046875 0 
L 40.046875 32.859375 
Q 40.046875 39.453125 37.1875 42.453125 
Q 34.328125 45.453125 29.109375 45.453125 
Q 25.203125 45.453125 21.75 43.421875 
Q 18.3125 41.40625 16.84375 37.9375 
Q 15.375 34.46875 15.375 28.375 
L 15.375 0 
z
" id="ArialMT-104"/>
      <path d="M 6.390625 0 
L 6.390625 71.578125 
L 15.1875 71.578125 
L 15.1875 0 
z
" id="ArialMT-108"/>
      <path d="M 4.984375 -4.296875 
L 13.53125 -5.5625 
Q 14.0625 -9.515625 16.5 -11.328125 
Q 19.78125 -13.765625 25.4375 -13.765625 
Q 31.546875 -13.765625 34.859375 -11.328125 
Q 38.1875 -8.890625 39.359375 -4.5 
Q 40.046875 -1.8125 39.984375 6.78125 
Q 34.234375 0 25.640625 0 
Q 14.9375 0 9.078125 7.71875 
Q 3.21875 15.4375 3.21875 26.21875 
Q 3.21875 33.640625 5.90625 39.90625 
Q 8.59375 46.1875 13.6875 49.609375 
Q 18.796875 53.03125 25.6875 53.03125 
Q 34.859375 53.03125 40.828125 45.609375 
L 40.828125 51.859375 
L 48.921875 51.859375 
L 48.921875 7.03125 
Q 48.921875 -5.078125 46.453125 -10.125 
Q 44 -15.1875 38.640625 -18.109375 
Q 33.296875 -21.046875 25.484375 -21.046875 
Q 16.21875 -21.046875 10.5 -16.875 
Q 4.78125 -12.703125 4.984375 -4.296875 
z
M 12.25 26.859375 
Q 12.25 16.65625 16.296875 11.96875 
Q 20.359375 7.28125 26.46875 7.28125 
Q 32.515625 7.28125 36.609375 11.9375 
Q 40.71875 16.609375 40.71875 26.5625 
Q 40.71875 36.078125 36.5 40.90625 
Q 32.28125 45.75 26.3125 45.75 
Q 20.453125 45.75 16.34375 40.984375 
Q 12.25 36.234375 12.25 26.859375 
z
" id="ArialMT-103"/>
      <path d="M 6.203125 -19.96875 
L 5.21875 -11.71875 
Q 8.109375 -12.5 10.25 -12.5 
Q 13.1875 -12.5 14.9375 -11.515625 
Q 16.703125 -10.546875 17.828125 -8.796875 
Q 18.65625 -7.46875 20.515625 -2.25 
Q 20.75 -1.515625 21.296875 -0.09375 
L 1.609375 51.859375 
L 11.078125 51.859375 
L 21.875 21.828125 
Q 23.96875 16.109375 25.640625 9.8125 
Q 27.15625 15.875 29.25 21.625 
L 40.328125 51.859375 
L 49.125 51.859375 
L 29.390625 -0.875 
Q 26.21875 -9.421875 24.46875 -12.640625 
Q 22.125 -17 19.09375 -19.015625 
Q 16.0625 -21.046875 11.859375 -21.046875 
Q 9.328125 -21.046875 6.203125 -19.96875 
z
" id="ArialMT-121"/>
     </defs>
     <use xlink:href="#ArialMT-77"/>
     <use x="83.300781" xlink:href="#ArialMT-105"/>
     <use x="105.517578" xlink:href="#ArialMT-99"/>
     <use x="155.517578" xlink:href="#ArialMT-114"/>
     <use x="188.818359" xlink:href="#ArialMT-111"/>
     <use x="244.433594" xlink:href="#ArialMT-110"/>
     <use x="300.048828" xlink:href="#ArialMT-32"/>
     <use x="326.082031" xlink:href="#ArialMT-84"/>
     <use x="376.041016" xlink:href="#ArialMT-101"/>
     <use x="431.65625" xlink:href="#ArialMT-99"/>
     <use x="481.65625" xlink:href="#ArialMT-104"/>
     <use x="537.271484" xlink:href="#ArialMT-110"/>
     <use x="592.886719" xlink:href="#ArialMT-111"/>
     <use x="648.501953" xlink:href="#ArialMT-108"/>
     <use x="670.71875" xlink:href="#ArialMT-111"/>
     <use x="726.333984" xlink:href="#ArialMT-103"/>
     <use x="781.949219" xlink:href="#ArialMT-121"/>
    </g>
   </g>
   <g id="legend_1">
    <g id="patch_7">
     <path d="M 51.31 55.18 
L 132.06125 55.18 
Q 133.66125 55.18 133.66125 53.58 
L 133.66125 31.56 
Q 133.66125 29.96 132.06125 29.96 
L 51.31 29.96 
Q 49.71 29.96 49.71 31.56 
L 49.71 53.58 
Q 49.71 55.18 51.31 55.18 
z
" style="fill:#ffffff;opacity:0.8;stroke:#cccccc;stroke-linejoin:miter;"/>
    </g>
    <g id="line2d_11">
     <path d="M 52.91 36.08625 
L 68.91 36.08625 
" style="fill:none;stroke:#808080;stroke-dasharray:1.85,0.8;stroke-dashoffset:0;stroke-width:0.5;"/>
    </g>
    <g id="text_16">
     <!-- average -->
     <g transform="translate(75.31 38.88625)scale(0.08 -0.08)">
      <defs>
       <path d="M 40.4375 6.390625 
Q 35.546875 2.25 31.03125 0.53125 
Q 26.515625 -1.171875 21.34375 -1.171875 
Q 12.796875 -1.171875 8.203125 3 
Q 3.609375 7.171875 3.609375 13.671875 
Q 3.609375 17.484375 5.34375 20.625 
Q 7.078125 23.78125 9.890625 25.6875 
Q 12.703125 27.59375 16.21875 28.5625 
Q 18.796875 29.25 24.03125 29.890625 
Q 34.671875 31.15625 39.703125 32.90625 
Q 39.75 34.71875 39.75 35.203125 
Q 39.75 40.578125 37.25 42.78125 
Q 33.890625 45.75 27.25 45.75 
Q 21.046875 45.75 18.09375 43.578125 
Q 15.140625 41.40625 13.71875 35.890625 
L 5.125 37.0625 
Q 6.296875 42.578125 8.984375 45.96875 
Q 11.671875 49.359375 16.75 51.1875 
Q 21.828125 53.03125 28.515625 53.03125 
Q 35.15625 53.03125 39.296875 51.46875 
Q 43.453125 49.90625 45.40625 47.53125 
Q 47.359375 45.171875 48.140625 41.546875 
Q 48.578125 39.3125 48.578125 33.453125 
L 48.578125 21.734375 
Q 48.578125 9.46875 49.140625 6.21875 
Q 49.703125 2.984375 51.375 0 
L 42.1875 0 
Q 40.828125 2.734375 40.4375 6.390625 
z
M 39.703125 26.03125 
Q 34.90625 24.078125 25.34375 22.703125 
Q 19.921875 21.921875 17.671875 20.9375 
Q 15.4375 19.96875 14.203125 18.09375 
Q 12.984375 16.21875 12.984375 13.921875 
Q 12.984375 10.40625 15.640625 8.0625 
Q 18.3125 5.71875 23.4375 5.71875 
Q 28.515625 5.71875 32.46875 7.9375 
Q 36.421875 10.15625 38.28125 14.015625 
Q 39.703125 17 39.703125 22.796875 
z
" id="ArialMT-97"/>
       <path d="M 21 0 
L 1.265625 51.859375 
L 10.546875 51.859375 
L 21.6875 20.796875 
Q 23.484375 15.765625 25 10.359375 
Q 26.171875 14.453125 28.265625 20.21875 
L 39.796875 51.859375 
L 48.828125 51.859375 
L 29.203125 0 
z
" id="ArialMT-118"/>
      </defs>
      <use xlink:href="#ArialMT-97"/>
      <use x="55.615234" xlink:href="#ArialMT-118"/>
      <use x="105.615234" xlink:href="#ArialMT-101"/>
      <use x="161.230469" xlink:href="#ArialMT-114"/>
      <use x="194.53125" xlink:href="#ArialMT-97"/>
      <use x="250.146484" xlink:href="#ArialMT-103"/>
      <use x="305.761719" xlink:href="#ArialMT-101"/>
     </g>
    </g>
    <g id="PathCollection_3">
     <g>
      <use style="stroke:#000000;" x="60.91" xlink:href="#mb4f1aba303" y="48.19625"/>
     </g>
    </g>
    <g id="text_17">
     <!-- annual average -->
     <g transform="translate(75.31 50.29625)scale(0.08 -0.08)">
      <defs>
       <path d="M 40.578125 0 
L 40.578125 7.625 
Q 34.515625 -1.171875 24.125 -1.171875 
Q 19.53125 -1.171875 15.546875 0.578125 
Q 11.578125 2.34375 9.640625 5 
Q 7.71875 7.671875 6.9375 11.53125 
Q 6.390625 14.109375 6.390625 19.734375 
L 6.390625 51.859375 
L 15.1875 51.859375 
L 15.1875 23.09375 
Q 15.1875 16.21875 15.71875 13.8125 
Q 16.546875 10.359375 19.234375 8.375 
Q 21.921875 6.390625 25.875 6.390625 
Q 29.828125 6.390625 33.296875 8.421875 
Q 36.765625 10.453125 38.203125 13.9375 
Q 39.65625 17.4375 39.65625 24.078125 
L 39.65625 51.859375 
L 48.4375 51.859375 
L 48.4375 0 
z
" id="ArialMT-117"/>
      </defs>
      <use xlink:href="#ArialMT-97"/>
      <use x="55.615234" xlink:href="#ArialMT-110"/>
      <use x="111.230469" xlink:href="#ArialMT-110"/>
      <use x="166.845703" xlink:href="#ArialMT-117"/>
      <use x="222.460938" xlink:href="#ArialMT-97"/>
      <use x="278.076172" xlink:href="#ArialMT-108"/>
      <use x="300.292969" xlink:href="#ArialMT-32"/>
      <use x="328.076172" xlink:href="#ArialMT-97"/>
      <use x="383.691406" xlink:href="#ArialMT-118"/>
      <use x="433.691406" xlink:href="#ArialMT-101"/>
      <use x="489.306641" xlink:href="#ArialMT-114"/>
      <use x="522.607422" xlink:href="#ArialMT-97"/>
      <use x="578.222656" xlink:href="#ArialMT-103"/>
      <use x="633.837891" xlink:href="#ArialMT-101"/>
     </g>
    </g>
   </g>
  </g>
  <g id="axes_2">
   <g id="patch_8">
    <path d="M 251.376654 150.34874 
L 440.583307 150.34874 
L 440.583307 25.96 
L 251.376654 25.96 
z
" style="fill:#ffffff;"/>
   </g>
   <g id="PathCollection_4">
    <g clip-path="url(#p3ff63a81c0)">
     <use style="stroke:#000000;" x="345.186185" xlink:href="#mb4f1aba303" y="127.245552"/>
     <use style="stroke:#000000;" x="336.64092" xlink:href="#mb4f1aba303" y="127.973097"/>
     <use style="stroke:#000000;" x="335.260343" xlink:href="#mb4f1aba303" y="115.228558"/>
     <use style="stroke:#000000;" x="356.002653" xlink:href="#mb4f1aba303" y="121.466304"/>
     <use style="stroke:#000000;" x="350.41393" xlink:href="#mb4f1aba303" y="91.100533"/>
     <use style="stroke:#000000;" x="346.279137" xlink:href="#mb4f1aba303" y="86.362549"/>
     <use style="stroke:#000000;" x="351.901271" xlink:href="#mb4f1aba303" y="73.297407"/>
     <use style="stroke:#000000;" x="354.437741" xlink:href="#mb4f1aba303" y="56.798525"/>
    </g>
   </g>
   <g id="matplotlib.axis_3">
    <g id="xtick_6">
     <g id="line2d_12">
      <g>
       <use style="stroke:#000000;stroke-width:0.8;" x="267.143875" xlink:href="#mc48c253b49" y="150.34874"/>
      </g>
     </g>
    </g>
    <g id="xtick_7">
     <g id="line2d_13">
      <g>
       <use style="stroke:#000000;stroke-width:0.8;" x="306.561927" xlink:href="#mc48c253b49" y="150.34874"/>
      </g>
     </g>
    </g>
    <g id="xtick_8">
     <g id="line2d_14">
      <g>
       <use style="stroke:#000000;stroke-width:0.8;" x="345.97998" xlink:href="#mc48c253b49" y="150.34874"/>
      </g>
     </g>
    </g>
    <g id="xtick_9">
     <g id="line2d_15">
      <g>
       <use style="stroke:#000000;stroke-width:0.8;" x="385.398033" xlink:href="#mc48c253b49" y="150.34874"/>
      </g>
     </g>
    </g>
    <g id="xtick_10">
     <g id="line2d_16">
      <g>
       <use style="stroke:#000000;stroke-width:0.8;" x="424.816086" xlink:href="#mc48c253b49" y="150.34874"/>
      </g>
     </g>
    </g>
   </g>
   <g id="matplotlib.axis_4">
    <g id="ytick_6">
     <g id="line2d_17">
      <g>
       <use style="stroke:#000000;stroke-width:0.8;" x="251.376654" xlink:href="#m83020937a4" y="139.983012"/>
      </g>
     </g>
    </g>
    <g id="ytick_7">
     <g id="line2d_18">
      <g>
       <use style="stroke:#000000;stroke-width:0.8;" x="251.376654" xlink:href="#m83020937a4" y="114.068691"/>
      </g>
     </g>
    </g>
    <g id="ytick_8">
     <g id="line2d_19">
      <g>
       <use style="stroke:#000000;stroke-width:0.8;" x="251.376654" xlink:href="#m83020937a4" y="88.15437"/>
      </g>
     </g>
    </g>
    <g id="ytick_9">
     <g id="line2d_20">
      <g>
       <use style="stroke:#000000;stroke-width:0.8;" x="251.376654" xlink:href="#m83020937a4" y="62.240049"/>
      </g>
     </g>
    </g>
    <g id="ytick_10">
     <g id="line2d_21">
      <g>
       <use style="stroke:#000000;stroke-width:0.8;" x="251.376654" xlink:href="#m83020937a4" y="36.325728"/>
      </g>
     </g>
    </g>
   </g>
   <g id="LineCollection_3">
    <path clip-path="url(#p3ff63a81c0)" d="M 109.471663 93.304086 
L 454.543307 93.304086 
" style="fill:none;stroke:#808080;stroke-dasharray:1.85,0.8;stroke-dashoffset:0;stroke-width:0.5;"/>
   </g>
   <g id="LineCollection_4">
    <path clip-path="url(#p3ff63a81c0)" d="M 331.894059 243.640295 
L 331.894059 -1 
" style="fill:none;stroke:#808080;stroke-dasharray:1.85,0.8;stroke-dashoffset:0;stroke-width:0.5;"/>
   </g>
   <g id="patch_9">
    <path d="M 251.376654 150.34874 
L 251.376654 25.96 
" style="fill:none;stroke:#000000;stroke-linecap:square;stroke-linejoin:miter;stroke-width:0.8;"/>
   </g>
   <g id="patch_10">
    <path d="M 440.583307 150.34874 
L 440.583307 25.96 
" style="fill:none;stroke:#000000;stroke-linecap:square;stroke-linejoin:miter;stroke-width:0.8;"/>
   </g>
   <g id="patch_11">
    <path d="M 251.376654 150.34874 
L 440.583307 150.34874 
" style="fill:none;stroke:#000000;stroke-linecap:square;stroke-linejoin:miter;stroke-width:0.8;"/>
   </g>
   <g id="patch_12">
    <path d="M 251.376654 25.96 
L 440.583307 25.96 
" style="fill:none;stroke:#000000;stroke-linecap:square;stroke-linejoin:miter;stroke-width:0.8;"/>
   </g>
   <g id="text_18">
    <!-- '00 -->
    <g transform="translate(345.186185 127.245552)scale(0.08 -0.08)">
     <use xlink:href="#ArialMT-39"/>
     <use x="19.091797" xlink:href="#ArialMT-48"/>
     <use x="74.707031" xlink:href="#ArialMT-48"/>
    </g>
   </g>
   <g id="text_19">
    <!-- '01 -->
    <g transform="translate(336.64092 127.973097)scale(0.08 -0.08)">
     <use xlink:href="#ArialMT-39"/>
     <use x="19.091797" xlink:href="#ArialMT-48"/>
     <use x="74.707031" xlink:href="#ArialMT-49"/>
    </g>
   </g>
   <g id="text_20">
    <!-- '02 -->
    <g transform="translate(335.260343 115.228558)scale(0.08 -0.08)">
     <use xlink:href="#ArialMT-39"/>
     <use x="19.091797" xlink:href="#ArialMT-48"/>
     <use x="74.707031" xlink:href="#ArialMT-50"/>
    </g>
   </g>
   <g id="text_21">
    <!-- '03 -->
    <g transform="translate(356.002653 121.466304)scale(0.08 -0.08)">
     <use xlink:href="#ArialMT-39"/>
     <use x="19.091797" xlink:href="#ArialMT-48"/>
     <use x="74.707031" xlink:href="#ArialMT-51"/>
    </g>
   </g>
   <g id="text_22">
    <!-- '04 -->
    <g transform="translate(350.41393 91.100533)scale(0.08 -0.08)">
     <use xlink:href="#ArialMT-39"/>
     <use x="19.091797" xlink:href="#ArialMT-48"/>
     <use x="74.707031" xlink:href="#ArialMT-52"/>
    </g>
   </g>
   <g id="text_23">
    <!-- '05 -->
    <g transform="translate(346.279137 86.362549)scale(0.08 -0.08)">
     <use xlink:href="#ArialMT-39"/>
     <use x="19.091797" xlink:href="#ArialMT-48"/>
     <use x="74.707031" xlink:href="#ArialMT-53"/>
    </g>
   </g>
   <g id="text_24">
    <!-- '06 -->
    <g transform="translate(351.901271 73.297407)scale(0.08 -0.08)">
     <use xlink:href="#ArialMT-39"/>
     <use x="19.091797" xlink:href="#ArialMT-48"/>
     <use x="74.707031" xlink:href="#ArialMT-54"/>
    </g>
   </g>
   <g id="text_25">
    <!-- '07 -->
    <g transform="translate(354.437741 56.798525)scale(0.08 -0.08)">
     <use xlink:href="#ArialMT-39"/>
     <use x="19.091797" xlink:href="#ArialMT-48"/>
     <use x="74.707031" xlink:href="#ArialMT-55"/>
    </g>
   </g>
   <g id="text_26">
    <!-- IBM -->
    <g transform="translate(337.44648 19.96)scale(0.096 -0.096)">
     <defs>
      <path d="M 9.328125 0 
L 9.328125 71.578125 
L 18.796875 71.578125 
L 18.796875 0 
z
" id="ArialMT-73"/>
      <path d="M 7.328125 0 
L 7.328125 71.578125 
L 34.1875 71.578125 
Q 42.390625 71.578125 47.34375 69.40625 
Q 52.296875 67.234375 55.09375 62.71875 
Q 57.90625 58.203125 57.90625 53.265625 
Q 57.90625 48.6875 55.421875 44.625 
Q 52.9375 40.578125 47.90625 38.09375 
Q 54.390625 36.1875 57.875 31.59375 
Q 61.375 27 61.375 20.75 
Q 61.375 15.71875 59.25 11.390625 
Q 57.125 7.078125 54 4.734375 
Q 50.875 2.390625 46.15625 1.1875 
Q 41.453125 0 34.625 0 
z
M 16.796875 41.5 
L 32.28125 41.5 
Q 38.578125 41.5 41.3125 42.328125 
Q 44.921875 43.40625 46.75 45.890625 
Q 48.578125 48.390625 48.578125 52.15625 
Q 48.578125 55.71875 46.875 58.421875 
Q 45.171875 61.140625 41.984375 62.140625 
Q 38.8125 63.140625 31.109375 63.140625 
L 16.796875 63.140625 
z
M 16.796875 8.453125 
L 34.625 8.453125 
Q 39.203125 8.453125 41.0625 8.796875 
Q 44.34375 9.375 46.53125 10.734375 
Q 48.734375 12.109375 50.140625 14.71875 
Q 51.5625 17.328125 51.5625 20.75 
Q 51.5625 24.75 49.515625 27.703125 
Q 47.46875 30.671875 43.828125 31.859375 
Q 40.1875 33.0625 33.34375 33.0625 
L 16.796875 33.0625 
z
" id="ArialMT-66"/>
     </defs>
     <use xlink:href="#ArialMT-73"/>
     <use x="27.783203" xlink:href="#ArialMT-66"/>
     <use x="94.482422" xlink:href="#ArialMT-77"/>
    </g>
   </g>
  </g>
  <g id="axes_3">
   <g id="patch_13">
    <path d="M 45.71 304.19748 
L 234.916654 304.19748 
L 234.916654 179.80874 
L 45.71 179.80874 
z
" style="fill:#ffffff;"/>
   </g>
   <g id="PathCollection_5">
    <g clip-path="url(#p613e24a451)">
     <use style="stroke:#000000;" x="111.614231" xlink:href="#mb4f1aba303" y="279.198952"/>
     <use style="stroke:#000000;" x="101.430652" xlink:href="#mb4f1aba303" y="290.009156"/>
     <use style="stroke:#000000;" x="103.621605" xlink:href="#mb4f1aba303" y="274.998868"/>
     <use style="stroke:#000000;" x="92.902821" xlink:href="#mb4f1aba303" y="261.961552"/>
     <use style="stroke:#000000;" x="87.838745" xlink:href="#mb4f1aba303" y="247.51591"/>
     <use style="stroke:#000000;" x="83.772826" xlink:href="#mb4f1aba303" y="236.68434"/>
     <use style="stroke:#000000;" x="84.621632" xlink:href="#mb4f1aba303" y="222.552029"/>
     <use style="stroke:#000000;" x="71.048912" xlink:href="#mb4f1aba303" y="243.950844"/>
    </g>
   </g>
   <g id="matplotlib.axis_5">
    <g id="xtick_11">
     <g id="line2d_22">
      <g>
       <use style="stroke:#000000;stroke-width:0.8;" x="61.477221" xlink:href="#mc48c253b49" y="304.19748"/>
      </g>
     </g>
     <g id="text_27">
      <!-- 0.00 -->
      <g transform="translate(53.692846 316.92373)scale(0.08 -0.08)">
       <use xlink:href="#ArialMT-48"/>
       <use x="55.615234" xlink:href="#ArialMT-46"/>
       <use x="83.398438" xlink:href="#ArialMT-48"/>
       <use x="139.013672" xlink:href="#ArialMT-48"/>
      </g>
     </g>
    </g>
    <g id="xtick_12">
     <g id="line2d_23">
      <g>
       <use style="stroke:#000000;stroke-width:0.8;" x="100.895274" xlink:href="#mc48c253b49" y="304.19748"/>
      </g>
     </g>
     <g id="text_28">
      <!-- 0.25 -->
      <g transform="translate(93.110899 316.92373)scale(0.08 -0.08)">
       <use xlink:href="#ArialMT-48"/>
       <use x="55.615234" xlink:href="#ArialMT-46"/>
       <use x="83.398438" xlink:href="#ArialMT-50"/>
       <use x="139.013672" xlink:href="#ArialMT-53"/>
      </g>
     </g>
    </g>
    <g id="xtick_13">
     <g id="line2d_24">
      <g>
       <use style="stroke:#000000;stroke-width:0.8;" x="140.313327" xlink:href="#mc48c253b49" y="304.19748"/>
      </g>
     </g>
     <g id="text_29">
      <!-- 0.50 -->
      <g transform="translate(132.528952 316.92373)scale(0.08 -0.08)">
       <use xlink:href="#ArialMT-48"/>
       <use x="55.615234" xlink:href="#ArialMT-46"/>
       <use x="83.398438" xlink:href="#ArialMT-53"/>
       <use x="139.013672" xlink:href="#ArialMT-48"/>
      </g>
     </g>
    </g>
    <g id="xtick_14">
     <g id="line2d_25">
      <g>
       <use style="stroke:#000000;stroke-width:0.8;" x="179.73138" xlink:href="#mc48c253b49" y="304.19748"/>
      </g>
     </g>
     <g id="text_30">
      <!-- 0.75 -->
      <g transform="translate(171.947005 316.92373)scale(0.08 -0.08)">
       <use xlink:href="#ArialMT-48"/>
       <use x="55.615234" xlink:href="#ArialMT-46"/>
       <use x="83.398438" xlink:href="#ArialMT-55"/>
       <use x="139.013672" xlink:href="#ArialMT-53"/>
      </g>
     </g>
    </g>
    <g id="xtick_15">
     <g id="line2d_26">
      <g>
       <use style="stroke:#000000;stroke-width:0.8;" x="219.149432" xlink:href="#mc48c253b49" y="304.19748"/>
      </g>
     </g>
     <g id="text_31">
      <!-- 1.00 -->
      <g transform="translate(211.365057 316.92373)scale(0.08 -0.08)">
       <use xlink:href="#ArialMT-49"/>
       <use x="55.615234" xlink:href="#ArialMT-46"/>
       <use x="83.398438" xlink:href="#ArialMT-48"/>
       <use x="139.013672" xlink:href="#ArialMT-48"/>
      </g>
     </g>
    </g>
    <g id="text_32">
     <!-- Cumulative GA -->
     <g transform="translate(113.415827 328.23998)scale(0.08 -0.08)">
      <defs>
       <path d="M 60.296875 25.203125 
L 69.78125 23.875 
Q 65.28125 11.46875 56.6875 5.125 
Q 48.09375 -1.21875 37.40625 -1.21875 
Q 24.359375 -1.21875 16.71875 6.734375 
Q 9.078125 14.703125 9.078125 29.546875 
Q 9.078125 48.875 20.703125 61.53125 
Q 31.0625 72.796875 46.4375 72.796875 
Q 57.8125 72.796875 64.859375 66.6875 
Q 71.921875 60.59375 73.046875 50.296875 
L 64.109375 49.46875 
Q 62.703125 57.234375 58.28125 61.0625 
Q 53.859375 64.890625 46.875 64.890625 
Q 33.734375 64.890625 25.640625 53.21875 
Q 18.609375 43.171875 18.609375 29.34375 
Q 18.609375 18.3125 24.015625 12.5 
Q 29.4375 6.6875 38.140625 6.6875 
Q 45.5625 6.6875 51.5625 11.515625 
Q 57.5625 16.359375 60.296875 25.203125 
z
" id="Arial-ItalicMT-67"/>
       <path d="M 3.265625 0 
L 14.109375 51.859375 
L 22.953125 51.859375 
L 21.140625 43.3125 
Q 26.078125 48.828125 29.953125 50.921875 
Q 33.84375 53.03125 38.375 53.03125 
Q 43.21875 53.03125 46.453125 50.46875 
Q 49.703125 47.90625 50.734375 43.3125 
Q 54.6875 48.1875 59.046875 50.609375 
Q 63.421875 53.03125 68.265625 53.03125 
Q 74.75 53.03125 78 49.953125 
Q 81.25 46.875 81.25 41.3125 
Q 81.25 38.921875 80.125 33.40625 
L 73.140625 0 
L 64.3125 0 
L 71.4375 34.28125 
Q 72.359375 38.484375 72.359375 40.28125 
Q 72.359375 42.828125 70.75 44.28125 
Q 69.140625 45.75 66.21875 45.75 
Q 62.25 45.75 58.140625 43.359375 
Q 54.046875 40.96875 51.78125 37.078125 
Q 49.515625 33.203125 47.796875 25.140625 
L 42.53125 0 
L 33.6875 0 
L 41.015625 35.015625 
Q 41.796875 38.578125 41.796875 40.09375 
Q 41.796875 42.625 40.203125 44.1875 
Q 38.625 45.75 36.078125 45.75 
Q 32.328125 45.75 28.203125 43.359375 
Q 24.078125 40.96875 21.484375 36.6875 
Q 18.890625 32.421875 17.234375 24.515625 
L 12.109375 0 
z
" id="Arial-ItalicMT-109"/>
       <path d="M 38.28125 6.453125 
Q 33.6875 2.484375 29.4375 0.65625 
Q 25.203125 -1.171875 20.359375 -1.171875 
Q 13.1875 -1.171875 8.78125 3.046875 
Q 4.390625 7.28125 4.390625 13.875 
Q 4.390625 18.21875 6.359375 21.5625 
Q 8.34375 24.90625 11.609375 26.921875 
Q 14.890625 28.953125 19.625 29.828125 
Q 22.609375 30.421875 30.9375 30.765625 
Q 39.265625 31.109375 42.875 32.515625 
Q 43.890625 36.140625 43.890625 38.53125 
Q 43.890625 41.609375 41.65625 43.359375 
Q 38.578125 45.796875 32.671875 45.796875 
Q 27.09375 45.796875 23.546875 43.328125 
Q 20.015625 40.875 18.40625 36.328125 
L 9.46875 37.109375 
Q 12.203125 44.828125 18.140625 48.921875 
Q 24.078125 53.03125 33.109375 53.03125 
Q 42.71875 53.03125 48.34375 48.4375 
Q 52.640625 45.015625 52.640625 39.546875 
Q 52.640625 35.40625 51.421875 29.9375 
L 48.53125 17.046875 
Q 47.171875 10.890625 47.171875 7.03125 
Q 47.171875 4.59375 48.25 0 
L 39.3125 0 
Q 38.578125 2.546875 38.28125 6.453125 
z
M 41.546875 26.265625 
Q 39.703125 25.53125 37.578125 25.140625 
Q 35.453125 24.75 30.46875 24.3125 
Q 22.75 23.640625 19.578125 22.578125 
Q 16.40625 21.53125 14.796875 19.234375 
Q 13.1875 16.9375 13.1875 14.15625 
Q 13.1875 10.453125 15.75 8.0625 
Q 18.3125 5.671875 23.046875 5.671875 
Q 27.4375 5.671875 31.484375 7.984375 
Q 35.546875 10.296875 37.890625 14.453125 
Q 40.234375 18.609375 41.546875 26.265625 
z
" id="Arial-ItalicMT-97"/>
       <path d="M 23.96875 7.171875 
L 22.515625 -0.046875 
Q 19.34375 -0.875 16.359375 -0.875 
Q 11.078125 -0.875 7.953125 1.703125 
Q 5.609375 3.65625 5.609375 7.03125 
Q 5.609375 8.734375 6.890625 14.890625 
L 13.1875 45.015625 
L 6.203125 45.015625 
L 7.625 51.859375 
L 14.59375 51.859375 
L 17.28125 64.59375 
L 27.390625 70.703125 
L 23.4375 51.859375 
L 32.125 51.859375 
L 30.671875 45.015625 
L 22.015625 45.015625 
L 16.015625 16.359375 
Q 14.890625 10.890625 14.890625 9.8125 
Q 14.890625 8.25 15.796875 7.421875 
Q 16.703125 6.59375 18.75 6.59375 
Q 21.6875 6.59375 23.96875 7.171875 
z
" id="Arial-ItalicMT-116"/>
      </defs>
      <use xlink:href="#Arial-ItalicMT-67"/>
      <use x="72.216797" xlink:href="#Arial-ItalicMT-117"/>
      <use x="127.832031" xlink:href="#Arial-ItalicMT-109"/>
      <use x="211.132812" xlink:href="#Arial-ItalicMT-117"/>
      <use x="266.748047" xlink:href="#Arial-ItalicMT-108"/>
      <use x="288.964844" xlink:href="#Arial-ItalicMT-97"/>
      <use x="344.580078" xlink:href="#Arial-ItalicMT-116"/>
      <use x="372.363281" xlink:href="#Arial-ItalicMT-105"/>
      <use x="394.580078" xlink:href="#Arial-ItalicMT-118"/>
      <use x="444.580078" xlink:href="#Arial-ItalicMT-101"/>
      <use x="500.195312" xlink:href="#Arial-ItalicMT-32"/>
      <use x="527.978516" xlink:href="#Arial-ItalicMT-71"/>
      <use x="605.761719" xlink:href="#Arial-ItalicMT-65"/>
     </g>
    </g>
   </g>
   <g id="matplotlib.axis_6">
    <g id="ytick_11">
     <g id="line2d_27">
      <g>
       <use style="stroke:#000000;stroke-width:0.8;" x="45.71" xlink:href="#m83020937a4" y="293.831752"/>
      </g>
     </g>
     <g id="text_33">
      <!-- 0.00 -->
      <g transform="translate(23.14125 296.694877)scale(0.08 -0.08)">
       <use xlink:href="#ArialMT-48"/>
       <use x="55.615234" xlink:href="#ArialMT-46"/>
       <use x="83.398438" xlink:href="#ArialMT-48"/>
       <use x="139.013672" xlink:href="#ArialMT-48"/>
      </g>
     </g>
    </g>
    <g id="ytick_12">
     <g id="line2d_28">
      <g>
       <use style="stroke:#000000;stroke-width:0.8;" x="45.71" xlink:href="#m83020937a4" y="267.917431"/>
      </g>
     </g>
     <g id="text_34">
      <!-- 0.25 -->
      <g transform="translate(23.14125 270.780556)scale(0.08 -0.08)">
       <use xlink:href="#ArialMT-48"/>
       <use x="55.615234" xlink:href="#ArialMT-46"/>
       <use x="83.398438" xlink:href="#ArialMT-50"/>
       <use x="139.013672" xlink:href="#ArialMT-53"/>
      </g>
     </g>
    </g>
    <g id="ytick_13">
     <g id="line2d_29">
      <g>
       <use style="stroke:#000000;stroke-width:0.8;" x="45.71" xlink:href="#m83020937a4" y="242.00311"/>
      </g>
     </g>
     <g id="text_35">
      <!-- 0.50 -->
      <g transform="translate(23.14125 244.866235)scale(0.08 -0.08)">
       <use xlink:href="#ArialMT-48"/>
       <use x="55.615234" xlink:href="#ArialMT-46"/>
       <use x="83.398438" xlink:href="#ArialMT-53"/>
       <use x="139.013672" xlink:href="#ArialMT-48"/>
      </g>
     </g>
    </g>
    <g id="ytick_14">
     <g id="line2d_30">
      <g>
       <use style="stroke:#000000;stroke-width:0.8;" x="45.71" xlink:href="#m83020937a4" y="216.088789"/>
      </g>
     </g>
     <g id="text_36">
      <!-- 0.75 -->
      <g transform="translate(23.14125 218.951914)scale(0.08 -0.08)">
       <use xlink:href="#ArialMT-48"/>
       <use x="55.615234" xlink:href="#ArialMT-46"/>
       <use x="83.398438" xlink:href="#ArialMT-55"/>
       <use x="139.013672" xlink:href="#ArialMT-53"/>
      </g>
     </g>
    </g>
    <g id="ytick_15">
     <g id="line2d_31">
      <g>
       <use style="stroke:#000000;stroke-width:0.8;" x="45.71" xlink:href="#m83020937a4" y="190.174469"/>
      </g>
     </g>
     <g id="text_37">
      <!-- 1.00 -->
      <g transform="translate(23.14125 193.037594)scale(0.08 -0.08)">
       <use xlink:href="#ArialMT-49"/>
       <use x="55.615234" xlink:href="#ArialMT-46"/>
       <use x="83.398438" xlink:href="#ArialMT-48"/>
       <use x="139.013672" xlink:href="#ArialMT-48"/>
      </g>
     </g>
    </g>
    <g id="text_38">
     <!-- Preclusive GA -->
     <g transform="translate(17.55125 267.34436)rotate(-90)scale(0.08 -0.08)">
      <use xlink:href="#Arial-ItalicMT-80"/>
      <use x="66.699219" xlink:href="#Arial-ItalicMT-114"/>
      <use x="100" xlink:href="#Arial-ItalicMT-101"/>
      <use x="155.615234" xlink:href="#Arial-ItalicMT-99"/>
      <use x="205.615234" xlink:href="#Arial-ItalicMT-108"/>
      <use x="227.832031" xlink:href="#Arial-ItalicMT-117"/>
      <use x="283.447266" xlink:href="#Arial-ItalicMT-115"/>
      <use x="333.447266" xlink:href="#Arial-ItalicMT-105"/>
      <use x="355.664062" xlink:href="#Arial-ItalicMT-118"/>
      <use x="405.664062" xlink:href="#Arial-ItalicMT-101"/>
      <use x="461.279297" xlink:href="#Arial-ItalicMT-32"/>
      <use x="489.0625" xlink:href="#Arial-ItalicMT-71"/>
      <use x="566.845703" xlink:href="#Arial-ItalicMT-65"/>
     </g>
    </g>
   </g>
   <g id="LineCollection_5">
    <path clip-path="url(#p613e24a451)" d="M -1 247.152826 
L 454.543307 247.152826 
" style="fill:none;stroke:#808080;stroke-dasharray:1.85,0.8;stroke-dashoffset:0;stroke-width:0.5;"/>
   </g>
   <g id="LineCollection_6">
    <path clip-path="url(#p613e24a451)" d="M 126.227405 341.15748 
L 126.227405 -1 
" style="fill:none;stroke:#808080;stroke-dasharray:1.85,0.8;stroke-dashoffset:0;stroke-width:0.5;"/>
   </g>
   <g id="patch_14">
    <path d="M 45.71 304.19748 
L 45.71 179.80874 
" style="fill:none;stroke:#000000;stroke-linecap:square;stroke-linejoin:miter;stroke-width:0.8;"/>
   </g>
   <g id="patch_15">
    <path d="M 234.916654 304.19748 
L 234.916654 179.80874 
" style="fill:none;stroke:#000000;stroke-linecap:square;stroke-linejoin:miter;stroke-width:0.8;"/>
   </g>
   <g id="patch_16">
    <path d="M 45.71 304.19748 
L 234.916654 304.19748 
" style="fill:none;stroke:#000000;stroke-linecap:square;stroke-linejoin:miter;stroke-width:0.8;"/>
   </g>
   <g id="patch_17">
    <path d="M 45.71 179.80874 
L 234.916654 179.80874 
" style="fill:none;stroke:#000000;stroke-linecap:square;stroke-linejoin:miter;stroke-width:0.8;"/>
   </g>
   <g id="text_39">
    <!-- '00 -->
    <g transform="translate(111.614231 279.198952)scale(0.08 -0.08)">
     <use xlink:href="#ArialMT-39"/>
     <use x="19.091797" xlink:href="#ArialMT-48"/>
     <use x="74.707031" xlink:href="#ArialMT-48"/>
    </g>
   </g>
   <g id="text_40">
    <!-- '01 -->
    <g transform="translate(101.430652 290.009156)scale(0.08 -0.08)">
     <use xlink:href="#ArialMT-39"/>
     <use x="19.091797" xlink:href="#ArialMT-48"/>
     <use x="74.707031" xlink:href="#ArialMT-49"/>
    </g>
   </g>
   <g id="text_41">
    <!-- '02 -->
    <g transform="translate(103.621605 274.998868)scale(0.08 -0.08)">
     <use xlink:href="#ArialMT-39"/>
     <use x="19.091797" xlink:href="#ArialMT-48"/>
     <use x="74.707031" xlink:href="#ArialMT-50"/>
    </g>
   </g>
   <g id="text_42">
    <!-- '03 -->
    <g transform="translate(92.902821 261.961552)scale(0.08 -0.08)">
     <use xlink:href="#ArialMT-39"/>
     <use x="19.091797" xlink:href="#ArialMT-48"/>
     <use x="74.707031" xlink:href="#ArialMT-51"/>
    </g>
   </g>
   <g id="text_43">
    <!-- '04 -->
    <g transform="translate(87.838745 247.51591)scale(0.08 -0.08)">
     <use xlink:href="#ArialMT-39"/>
     <use x="19.091797" xlink:href="#ArialMT-48"/>
     <use x="74.707031" xlink:href="#ArialMT-52"/>
    </g>
   </g>
   <g id="text_44">
    <!-- '05 -->
    <g transform="translate(83.772826 236.68434)scale(0.08 -0.08)">
     <use xlink:href="#ArialMT-39"/>
     <use x="19.091797" xlink:href="#ArialMT-48"/>
     <use x="74.707031" xlink:href="#ArialMT-53"/>
    </g>
   </g>
   <g id="text_45">
    <!-- '06 -->
    <g transform="translate(84.621632 222.552029)scale(0.08 -0.08)">
     <use xlink:href="#ArialMT-39"/>
     <use x="19.091797" xlink:href="#ArialMT-48"/>
     <use x="74.707031" xlink:href="#ArialMT-54"/>
    </g>
   </g>
   <g id="text_46">
    <!-- '07 -->
    <g transform="translate(71.048912 243.950844)scale(0.08 -0.08)">
     <use xlink:href="#ArialMT-39"/>
     <use x="19.091797" xlink:href="#ArialMT-48"/>
     <use x="74.707031" xlink:href="#ArialMT-55"/>
    </g>
   </g>
   <g id="text_47">
    <!-- Samsung -->
    <g transform="translate(120.036327 173.80874)scale(0.096 -0.096)">
     <defs>
      <path d="M 4.5 23 
L 13.421875 23.78125 
Q 14.0625 18.40625 16.375 14.96875 
Q 18.703125 11.53125 23.578125 9.40625 
Q 28.46875 7.28125 34.578125 7.28125 
Q 39.984375 7.28125 44.140625 8.890625 
Q 48.296875 10.5 50.3125 13.296875 
Q 52.34375 16.109375 52.34375 19.4375 
Q 52.34375 22.796875 50.390625 25.3125 
Q 48.4375 27.828125 43.953125 29.546875 
Q 41.0625 30.671875 31.203125 33.03125 
Q 21.34375 35.40625 17.390625 37.5 
Q 12.25 40.1875 9.734375 44.15625 
Q 7.234375 48.140625 7.234375 53.078125 
Q 7.234375 58.5 10.296875 63.203125 
Q 13.375 67.921875 19.28125 70.359375 
Q 25.203125 72.796875 32.421875 72.796875 
Q 40.375 72.796875 46.453125 70.234375 
Q 52.546875 67.671875 55.8125 62.6875 
Q 59.078125 57.71875 59.328125 51.421875 
L 50.25 50.734375 
Q 49.515625 57.515625 45.28125 60.984375 
Q 41.0625 64.453125 32.8125 64.453125 
Q 24.21875 64.453125 20.28125 61.296875 
Q 16.359375 58.15625 16.359375 53.71875 
Q 16.359375 49.859375 19.140625 47.359375 
Q 21.875 44.875 33.421875 42.265625 
Q 44.96875 39.65625 49.265625 37.703125 
Q 55.515625 34.8125 58.484375 30.390625 
Q 61.46875 25.984375 61.46875 20.21875 
Q 61.46875 14.5 58.203125 9.4375 
Q 54.9375 4.390625 48.796875 1.578125 
Q 42.671875 -1.21875 35.015625 -1.21875 
Q 25.296875 -1.21875 18.71875 1.609375 
Q 12.15625 4.4375 8.421875 10.125 
Q 4.6875 15.828125 4.5 23 
z
" id="ArialMT-83"/>
      <path d="M 6.59375 0 
L 6.59375 51.859375 
L 14.453125 51.859375 
L 14.453125 44.578125 
Q 16.890625 48.390625 20.9375 50.703125 
Q 25 53.03125 30.171875 53.03125 
Q 35.9375 53.03125 39.625 50.640625 
Q 43.3125 48.25 44.828125 43.953125 
Q 50.984375 53.03125 60.84375 53.03125 
Q 68.5625 53.03125 72.703125 48.75 
Q 76.859375 44.484375 76.859375 35.59375 
L 76.859375 0 
L 68.109375 0 
L 68.109375 32.671875 
Q 68.109375 37.9375 67.25 40.25 
Q 66.40625 42.578125 64.15625 43.984375 
Q 61.921875 45.40625 58.890625 45.40625 
Q 53.421875 45.40625 49.796875 41.765625 
Q 46.1875 38.140625 46.1875 30.125 
L 46.1875 0 
L 37.40625 0 
L 37.40625 33.6875 
Q 37.40625 39.546875 35.25 42.46875 
Q 33.109375 45.40625 28.21875 45.40625 
Q 24.515625 45.40625 21.359375 43.453125 
Q 18.21875 41.5 16.796875 37.734375 
Q 15.375 33.984375 15.375 26.90625 
L 15.375 0 
z
" id="ArialMT-109"/>
      <path d="M 3.078125 15.484375 
L 11.765625 16.84375 
Q 12.5 11.625 15.84375 8.84375 
Q 19.1875 6.0625 25.203125 6.0625 
Q 31.25 6.0625 34.171875 8.515625 
Q 37.109375 10.984375 37.109375 14.3125 
Q 37.109375 17.28125 34.515625 19 
Q 32.71875 20.171875 25.53125 21.96875 
Q 15.875 24.421875 12.140625 26.203125 
Q 8.40625 27.984375 6.46875 31.125 
Q 4.546875 34.28125 4.546875 38.09375 
Q 4.546875 41.546875 6.125 44.5 
Q 7.71875 47.46875 10.453125 49.421875 
Q 12.5 50.921875 16.03125 51.96875 
Q 19.578125 53.03125 23.640625 53.03125 
Q 29.734375 53.03125 34.34375 51.265625 
Q 38.96875 49.515625 41.15625 46.5 
Q 43.359375 43.5 44.1875 38.484375 
L 35.59375 37.3125 
Q 35.015625 41.3125 32.203125 43.546875 
Q 29.390625 45.796875 24.265625 45.796875 
Q 18.21875 45.796875 15.625 43.796875 
Q 13.03125 41.796875 13.03125 39.109375 
Q 13.03125 37.40625 14.109375 36.03125 
Q 15.1875 34.625 17.484375 33.6875 
Q 18.796875 33.203125 25.25 31.453125 
Q 34.578125 28.953125 38.25 27.359375 
Q 41.9375 25.78125 44.03125 22.75 
Q 46.140625 19.734375 46.140625 15.234375 
Q 46.140625 10.84375 43.578125 6.953125 
Q 41.015625 3.078125 36.171875 0.953125 
Q 31.34375 -1.171875 25.25 -1.171875 
Q 15.140625 -1.171875 9.84375 3.03125 
Q 4.546875 7.234375 3.078125 15.484375 
z
" id="ArialMT-115"/>
     </defs>
     <use xlink:href="#ArialMT-83"/>
     <use x="66.699219" xlink:href="#ArialMT-97"/>
     <use x="122.314453" xlink:href="#ArialMT-109"/>
     <use x="205.615234" xlink:href="#ArialMT-115"/>
     <use x="255.615234" xlink:href="#ArialMT-117"/>
     <use x="311.230469" xlink:href="#ArialMT-110"/>
     <use x="366.845703" xlink:href="#ArialMT-103"/>
    </g>
   </g>
  </g>
  <g id="axes_4">
   <g id="patch_18">
    <path d="M 251.376654 304.19748 
L 440.583307 304.19748 
L 440.583307 179.80874 
L 251.376654 179.80874 
z
" style="fill:#ffffff;"/>
   </g>
   <g id="PathCollection_6">
    <g clip-path="url(#pbfe296270c)">
     <use style="stroke:#000000;" x="299.699536" xlink:href="#mb4f1aba303" y="293.831752"/>
     <use style="stroke:#000000;" x="294.494799" xlink:href="#mb4f1aba303" y="269.412996"/>
     <use style="stroke:#000000;" x="292.38403" xlink:href="#mb4f1aba303" y="272.975599"/>
     <use style="stroke:#000000;" x="297.943844" xlink:href="#mb4f1aba303" y="270.720764"/>
     <use style="stroke:#000000;" x="267.143875" xlink:href="#mb4f1aba303" y="269.379622"/>
     <use style="stroke:#000000;" x="273.663938" xlink:href="#mb4f1aba303" y="230.092801"/>
     <use style="stroke:#000000;" x="282.423719" xlink:href="#mb4f1aba303" y="246.603467"/>
     <use style="stroke:#000000;" x="280.067113" xlink:href="#mb4f1aba303" y="228.075674"/>
    </g>
   </g>
   <g id="matplotlib.axis_7">
    <g id="xtick_16">
     <g id="line2d_32">
      <g>
       <use style="stroke:#000000;stroke-width:0.8;" x="267.143875" xlink:href="#mc48c253b49" y="304.19748"/>
      </g>
     </g>
     <g id="text_48">
      <!-- 0.00 -->
      <g transform="translate(259.3595 316.92373)scale(0.08 -0.08)">
       <use xlink:href="#ArialMT-48"/>
       <use x="55.615234" xlink:href="#ArialMT-46"/>
       <use x="83.398438" xlink:href="#ArialMT-48"/>
       <use x="139.013672" xlink:href="#ArialMT-48"/>
      </g>
     </g>
    </g>
    <g id="xtick_17">
     <g id="line2d_33">
      <g>
       <use style="stroke:#000000;stroke-width:0.8;" x="306.561927" xlink:href="#mc48c253b49" y="304.19748"/>
      </g>
     </g>
     <g id="text_49">
      <!-- 0.25 -->
      <g transform="translate(298.777552 316.92373)scale(0.08 -0.08)">
       <use xlink:href="#ArialMT-48"/>
       <use x="55.615234" xlink:href="#ArialMT-46"/>
       <use x="83.398438" xlink:href="#ArialMT-50"/>
       <use x="139.013672" xlink:href="#ArialMT-53"/>
      </g>
     </g>
    </g>
    <g id="xtick_18">
     <g id="line2d_34">
      <g>
       <use style="stroke:#000000;stroke-width:0.8;" x="345.97998" xlink:href="#mc48c253b49" y="304.19748"/>
      </g>
     </g>
     <g id="text_50">
      <!-- 0.50 -->
      <g transform="translate(338.195605 316.92373)scale(0.08 -0.08)">
       <use xlink:href="#ArialMT-48"/>
       <use x="55.615234" xlink:href="#ArialMT-46"/>
       <use x="83.398438" xlink:href="#ArialMT-53"/>
       <use x="139.013672" xlink:href="#ArialMT-48"/>
      </g>
     </g>
    </g>
    <g id="xtick_19">
     <g id="line2d_35">
      <g>
       <use style="stroke:#000000;stroke-width:0.8;" x="385.398033" xlink:href="#mc48c253b49" y="304.19748"/>
      </g>
     </g>
     <g id="text_51">
      <!-- 0.75 -->
      <g transform="translate(377.613658 316.92373)scale(0.08 -0.08)">
       <use xlink:href="#ArialMT-48"/>
       <use x="55.615234" xlink:href="#ArialMT-46"/>
       <use x="83.398438" xlink:href="#ArialMT-55"/>
       <use x="139.013672" xlink:href="#ArialMT-53"/>
      </g>
     </g>
    </g>
    <g id="xtick_20">
     <g id="line2d_36">
      <g>
       <use style="stroke:#000000;stroke-width:0.8;" x="424.816086" xlink:href="#mc48c253b49" y="304.19748"/>
      </g>
     </g>
     <g id="text_52">
      <!-- 1.00 -->
      <g transform="translate(417.031711 316.92373)scale(0.08 -0.08)">
       <use xlink:href="#ArialMT-49"/>
       <use x="55.615234" xlink:href="#ArialMT-46"/>
       <use x="83.398438" xlink:href="#ArialMT-48"/>
       <use x="139.013672" xlink:href="#ArialMT-48"/>
      </g>
     </g>
    </g>
    <g id="text_53">
     <!-- Cumulative GA -->
     <g transform="translate(319.08248 328.23998)scale(0.08 -0.08)">
      <use xlink:href="#Arial-ItalicMT-67"/>
      <use x="72.216797" xlink:href="#Arial-ItalicMT-117"/>
      <use x="127.832031" xlink:href="#Arial-ItalicMT-109"/>
      <use x="211.132812" xlink:href="#Arial-ItalicMT-117"/>
      <use x="266.748047" xlink:href="#Arial-ItalicMT-108"/>
      <use x="288.964844" xlink:href="#Arial-ItalicMT-97"/>
      <use x="344.580078" xlink:href="#Arial-ItalicMT-116"/>
      <use x="372.363281" xlink:href="#Arial-ItalicMT-105"/>
      <use x="394.580078" xlink:href="#Arial-ItalicMT-118"/>
      <use x="444.580078" xlink:href="#Arial-ItalicMT-101"/>
      <use x="500.195312" xlink:href="#Arial-ItalicMT-32"/>
      <use x="527.978516" xlink:href="#Arial-ItalicMT-71"/>
      <use x="605.761719" xlink:href="#Arial-ItalicMT-65"/>
     </g>
    </g>
   </g>
   <g id="matplotlib.axis_8">
    <g id="ytick_16">
     <g id="line2d_37">
      <g>
       <use style="stroke:#000000;stroke-width:0.8;" x="251.376654" xlink:href="#m83020937a4" y="293.831752"/>
      </g>
     </g>
    </g>
    <g id="ytick_17">
     <g id="line2d_38">
      <g>
       <use style="stroke:#000000;stroke-width:0.8;" x="251.376654" xlink:href="#m83020937a4" y="267.917431"/>
      </g>
     </g>
    </g>
    <g id="ytick_18">
     <g id="line2d_39">
      <g>
       <use style="stroke:#000000;stroke-width:0.8;" x="251.376654" xlink:href="#m83020937a4" y="242.00311"/>
      </g>
     </g>
    </g>
    <g id="ytick_19">
     <g id="line2d_40">
      <g>
       <use style="stroke:#000000;stroke-width:0.8;" x="251.376654" xlink:href="#m83020937a4" y="216.088789"/>
      </g>
     </g>
    </g>
    <g id="ytick_20">
     <g id="line2d_41">
      <g>
       <use style="stroke:#000000;stroke-width:0.8;" x="251.376654" xlink:href="#m83020937a4" y="190.174469"/>
      </g>
     </g>
    </g>
   </g>
   <g id="LineCollection_7">
    <path clip-path="url(#pbfe296270c)" d="M 109.471663 247.152826 
L 454.543307 247.152826 
" style="fill:none;stroke:#808080;stroke-dasharray:1.85,0.8;stroke-dashoffset:0;stroke-width:0.5;"/>
   </g>
   <g id="LineCollection_8">
    <path clip-path="url(#pbfe296270c)" d="M 331.894059 341.15748 
L 331.894059 -1 
" style="fill:none;stroke:#808080;stroke-dasharray:1.85,0.8;stroke-dashoffset:0;stroke-width:0.5;"/>
   </g>
   <g id="patch_19">
    <path d="M 251.376654 304.19748 
L 251.376654 179.80874 
" style="fill:none;stroke:#000000;stroke-linecap:square;stroke-linejoin:miter;stroke-width:0.8;"/>
   </g>
   <g id="patch_20">
    <path d="M 440.583307 304.19748 
L 440.583307 179.80874 
" style="fill:none;stroke:#000000;stroke-linecap:square;stroke-linejoin:miter;stroke-width:0.8;"/>
   </g>
   <g id="patch_21">
    <path d="M 251.376654 304.19748 
L 440.583307 304.19748 
" style="fill:none;stroke:#000000;stroke-linecap:square;stroke-linejoin:miter;stroke-width:0.8;"/>
   </g>
   <g id="patch_22">
    <path d="M 251.376654 179.80874 
L 440.583307 179.80874 
" style="fill:none;stroke:#000000;stroke-linecap:square;stroke-linejoin:miter;stroke-width:0.8;"/>
   </g>
   <g id="text_54">
    <!-- '00 -->
    <g transform="translate(299.699536 293.831752)scale(0.08 -0.08)">
     <use xlink:href="#ArialMT-39"/>
     <use x="19.091797" xlink:href="#ArialMT-48"/>
     <use x="74.707031" xlink:href="#ArialMT-48"/>
    </g>
   </g>
   <g id="text_55">
    <!-- '01 -->
    <g transform="translate(294.494799 269.412996)scale(0.08 -0.08)">
     <use xlink:href="#ArialMT-39"/>
     <use x="19.091797" xlink:href="#ArialMT-48"/>
     <use x="74.707031" xlink:href="#ArialMT-49"/>
    </g>
   </g>
   <g id="text_56">
    <!-- '02 -->
    <g transform="translate(292.38403 272.975599)scale(0.08 -0.08)">
     <use xlink:href="#ArialMT-39"/>
     <use x="19.091797" xlink:href="#ArialMT-48"/>
     <use x="74.707031" xlink:href="#ArialMT-50"/>
    </g>
   </g>
   <g id="text_57">
    <!-- '03 -->
    <g transform="translate(297.943844 270.720764)scale(0.08 -0.08)">
     <use xlink:href="#ArialMT-39"/>
     <use x="19.091797" xlink:href="#ArialMT-48"/>
     <use x="74.707031" xlink:href="#ArialMT-51"/>
    </g>
   </g>
   <g id="text_58">
    <!-- '04 -->
    <g transform="translate(267.143875 269.379622)scale(0.08 -0.08)">
     <use xlink:href="#ArialMT-39"/>
     <use x="19.091797" xlink:href="#ArialMT-48"/>
     <use x="74.707031" xlink:href="#ArialMT-52"/>
    </g>
   </g>
   <g id="text_59">
    <!-- '05 -->
    <g transform="translate(273.663938 230.092801)scale(0.08 -0.08)">
     <use xlink:href="#ArialMT-39"/>
     <use x="19.091797" xlink:href="#ArialMT-48"/>
     <use x="74.707031" xlink:href="#ArialMT-53"/>
    </g>
   </g>
   <g id="text_60">
    <!-- '06 -->
    <g transform="translate(282.423719 246.603467)scale(0.08 -0.08)">
     <use xlink:href="#ArialMT-39"/>
     <use x="19.091797" xlink:href="#ArialMT-48"/>
     <use x="74.707031" xlink:href="#ArialMT-54"/>
    </g>
   </g>
   <g id="text_61">
    <!-- '07 -->
    <g transform="translate(280.067113 228.075674)scale(0.08 -0.08)">
     <use xlink:href="#ArialMT-39"/>
     <use x="19.091797" xlink:href="#ArialMT-48"/>
     <use x="74.707031" xlink:href="#ArialMT-55"/>
    </g>
   </g>
   <g id="text_62">
    <!-- Toshiba -->
    <g transform="translate(329.43873 173.80874)scale(0.096 -0.096)">
     <defs>
      <path d="M 14.703125 0 
L 6.546875 0 
L 6.546875 71.578125 
L 15.328125 71.578125 
L 15.328125 46.046875 
Q 20.90625 53.03125 29.546875 53.03125 
Q 34.328125 53.03125 38.59375 51.09375 
Q 42.875 49.171875 45.625 45.671875 
Q 48.390625 42.1875 49.953125 37.25 
Q 51.515625 32.328125 51.515625 26.703125 
Q 51.515625 13.375 44.921875 6.09375 
Q 38.328125 -1.171875 29.109375 -1.171875 
Q 19.921875 -1.171875 14.703125 6.5 
z
M 14.59375 26.3125 
Q 14.59375 17 17.140625 12.84375 
Q 21.296875 6.0625 28.375 6.0625 
Q 34.125 6.0625 38.328125 11.0625 
Q 42.53125 16.0625 42.53125 25.984375 
Q 42.53125 36.140625 38.5 40.96875 
Q 34.46875 45.796875 28.765625 45.796875 
Q 23 45.796875 18.796875 40.796875 
Q 14.59375 35.796875 14.59375 26.3125 
z
" id="ArialMT-98"/>
     </defs>
     <use xlink:href="#ArialMT-84"/>
     <use x="49.958984" xlink:href="#ArialMT-111"/>
     <use x="105.574219" xlink:href="#ArialMT-115"/>
     <use x="155.574219" xlink:href="#ArialMT-104"/>
     <use x="211.189453" xlink:href="#ArialMT-105"/>
     <use x="233.40625" xlink:href="#ArialMT-98"/>
     <use x="289.021484" xlink:href="#ArialMT-97"/>
    </g>
   </g>
  </g>
 </g>
 <defs>
  <clipPath id="pd4929a830f">
   <rect height="124.38874" width="189.206654" x="45.71" y="25.96"/>
  </clipPath>
  <clipPath id="p3ff63a81c0">
   <rect height="124.38874" width="189.206654" x="251.376654" y="25.96"/>
  </clipPath>
  <clipPath id="p613e24a451">
   <rect height="124.38874" width="189.206654" x="45.71" y="179.80874"/>
  </clipPath>
  <clipPath id="pbfe296270c">
   <rect height="124.38874" width="189.206654" x="251.376654" y="179.80874"/>
  </clipPath>
 </defs>
</svg>
